# Blender 5.0.0
# www.blender.org
mtllib model.mtl
o Cube
v 0.500000 0.967732 -0.965693
v 0.500000 -0.967732 -0.965693
v 0.500000 0.967732 0.965693
v 0.500000 -0.967732 0.965693
v -0.500000 0.967732 -0.965693
v -0.500000 -0.967732 -0.965693
v -0.500000 0.967732 0.965693
v -0.500000 -0.967732 0.965693
v 0.666667 0.602131 -0.977129
v 0.666667 -0.602131 -0.977129
v -0.666667 -0.602131 0.977129
v -0.666667 0.602131 0.977129
v 0.666667 0.602131 0.977128
v 0.666667 -0.602131 0.977128
v -0.666667 -0.602131 -0.977128
v -0.666667 0.602131 -0.977128
v 0.666667 -0.978488 0.598052
v 0.666667 -0.978488 -0.598052
v -0.666667 0.978488 0.598052
v -0.666667 0.978488 -0.598052
v 0.666667 0.978488 -0.598052
v 0.666667 0.978488 0.598052
v -0.666667 -0.978488 -0.598052
v -0.666667 -0.978488 0.598052
v 1.000000 0.602131 0.598052
v 1.000000 0.602131 -0.598052
v 1.000000 -0.602131 -0.598052
v 1.000000 -0.602131 0.598052
v -1.000000 0.602131 -0.598052
v -1.000000 0.602131 0.598052
v -1.000000 -0.602131 0.598052
v -1.000000 -0.602131 -0.598052
v 0.296650 -0.972439 -0.970697
v 0.000000 -0.974803 -0.973211
v -0.296650 -0.972439 -0.970697
v 0.296650 0.972439 0.970697
v -0.000000 0.974803 0.973211
v -0.296650 0.972439 0.970697
v -0.296650 -0.972439 0.970697
v -0.000000 -0.974803 0.973211
v 0.296650 -0.972439 0.970697
v -0.296650 0.972439 -0.970697
v -0.000000 0.974803 -0.973211
v 0.296650 0.972439 -0.970697
v -0.666667 -0.326265 -0.977129
v -0.666667 0.000000 -0.977128
v -0.666667 0.326265 -0.977129
v -0.364583 0.602131 -0.989994
v -0.000000 0.602131 -0.994282
v 0.364583 0.602131 -0.989994
v 0.666667 0.326265 -0.977129
v 0.666667 0.000000 -0.977128
v 0.666667 -0.326265 -0.977129
v 0.364583 -0.602131 -0.989994
v -0.000000 -0.602131 -0.994282
v -0.364583 -0.602131 -0.989994
v 0.666667 0.326265 0.977129
v 0.666667 -0.000000 0.977128
v 0.666667 -0.326265 0.977129
v -0.666667 -0.326265 0.977129
v -0.666667 0.000000 0.977128
v -0.666667 0.326265 0.977128
v 0.364583 0.602131 0.989994
v 0.000000 0.602131 0.994282
v -0.364583 0.602131 0.989994
v -0.364583 -0.602131 0.989994
v 0.000000 -0.602131 0.994282
v 0.364583 -0.602131 0.989994
v 0.576501 -0.949898 -0.970942
v 0.638117 -0.897781 -0.975170
v 0.663098 -0.789287 -0.976884
v 0.663098 -0.789287 0.976884
v 0.638117 -0.897781 0.975170
v 0.576501 -0.949898 0.970942
v -0.576501 -0.949898 -0.970942
v -0.638117 -0.897781 -0.975170
v -0.663098 -0.789287 -0.976884
v 0.663098 0.789287 -0.976884
v 0.638117 0.897781 -0.975170
v 0.576501 0.949898 -0.970942
v 0.576501 0.949898 0.970942
v 0.638117 0.897781 0.975170
v 0.663098 0.789287 0.976884
v -0.663098 0.789287 -0.976884
v -0.638117 0.897781 -0.975170
v -0.576501 0.949898 -0.970942
v -0.663098 0.789287 0.976884
v -0.638117 0.897781 0.975170
v -0.576501 0.949898 0.970942
v -0.663098 -0.789287 0.976884
v -0.638117 -0.897781 0.975170
v -0.576501 -0.949898 0.970942
v 1.000000 -0.602131 -0.323843
v 1.000000 -0.602131 0.000000
v 1.000000 -0.602131 0.323843
v 0.994792 -0.789461 0.598052
v 0.958333 -0.899175 0.598052
v 0.859375 -0.954457 0.598052
v 0.666667 -0.978488 0.323843
v 0.666667 -0.978488 0.000000
v 0.666667 -0.978488 -0.323843
v 0.859375 -0.954457 -0.598052
v 0.958333 -0.899175 -0.598052
v 0.994792 -0.789461 -0.598052
v 0.666667 0.978488 -0.323843
v 0.666667 0.978488 0.000000
v 0.666667 0.978488 0.323843
v 0.859375 0.954457 0.598052
v 0.958333 0.899175 0.598052
v 0.994792 0.789461 0.598052
v 1.000000 0.602131 0.323843
v 1.000000 0.602131 0.000000
v 1.000000 0.602131 -0.323843
v 0.994792 0.789461 -0.598052
v 0.958333 0.899175 -0.598052
v 0.859375 0.954457 -0.598052
v -0.666667 0.978488 0.323843
v -0.666667 0.978488 -0.000000
v -0.666667 0.978488 -0.323843
v -0.859375 0.954457 -0.598052
v -0.958333 0.899175 -0.598052
v -0.994792 0.789461 -0.598052
v -1.000000 0.602131 -0.323843
v -1.000000 0.602131 -0.000000
v -1.000000 0.602131 0.323843
v -0.994792 0.789461 0.598052
v -0.958333 0.899175 0.598052
v -0.859375 0.954457 0.598052
v -1.000000 -0.602131 0.323843
v -1.000000 -0.602131 -0.000000
v -1.000000 -0.602131 -0.323843
v -0.994792 -0.789461 -0.598052
v -0.958333 -0.899175 -0.598052
v -0.859375 -0.954457 -0.598052
v -0.666667 -0.978488 -0.323843
v -0.666667 -0.978488 -0.000000
v -0.666667 -0.978488 0.323843
v -0.859375 -0.954457 0.598052
v -0.958333 -0.899175 0.598052
v -0.994792 -0.789461 0.598052
v -1.000000 0.326265 -0.598052
v -1.000000 0.000000 -0.598052
v -1.000000 -0.326265 -0.598052
v -1.000000 -0.326265 0.598052
v -1.000000 0.000000 0.598052
v -1.000000 0.326265 0.598052
v 1.000000 0.326265 0.598052
v 1.000000 0.000000 0.598052
v 1.000000 -0.326265 0.598052
v 1.000000 -0.326265 -0.598052
v 1.000000 0.000000 -0.598052
v 1.000000 0.326265 -0.598052
v 0.364583 -0.990589 0.598052
v 0.000000 -0.994622 0.598052
v -0.364583 -0.990589 0.598052
v -0.364583 -0.990589 -0.598052
v 0.000000 -0.994622 -0.598052
v 0.364583 -0.990589 -0.598052
v -0.364583 0.990589 0.598052
v 0.000000 0.994622 0.598052
v 0.364583 0.990589 0.598052
v 0.364583 0.990589 -0.598052
v 0.000000 0.994622 -0.598052
v -0.364583 0.990589 -0.598052
v 0.576501 -0.972669 0.947061
v 0.638117 -0.976646 0.893954
v 0.663098 -0.978258 0.784857
v 0.994792 -0.602131 0.785042
v 0.958333 -0.602131 0.895437
v 0.859375 -0.602131 0.951907
v -0.576501 -0.972669 0.947061
v -0.638117 -0.976646 0.893954
v -0.663098 -0.978258 0.784857
v 0.663098 -0.978258 -0.784857
v 0.638117 -0.976646 -0.893954
v 0.576501 -0.972669 -0.947061
v 0.859375 -0.602131 -0.951907
v 0.958333 -0.602131 -0.895436
v 0.994792 -0.602131 -0.785042
v -0.663098 -0.978258 -0.784857
v -0.638117 -0.976646 -0.893954
v -0.576501 -0.972669 -0.947061
v -0.859375 0.602131 -0.951907
v -0.958333 0.602131 -0.895437
v -0.994792 0.602131 -0.785042
v -0.663098 0.978258 -0.784857
v -0.638117 0.976646 -0.893954
v -0.576501 0.972669 -0.947061
v 0.576501 0.972669 0.947061
v 0.638117 0.976646 0.893954
v 0.663098 0.978258 0.784857
v -0.663098 0.978258 0.784857
v -0.638117 0.976646 0.893954
v -0.576501 0.972669 0.947061
v -0.994792 0.602131 0.785042
v -0.958333 0.602131 0.895436
v -0.859375 0.602131 0.951907
v 0.663098 0.978258 -0.784857
v 0.638117 0.976646 -0.893954
v 0.576501 0.972669 -0.947061
v 0.859375 0.602131 0.951907
v 0.958333 0.602131 0.895437
v 0.994792 0.602131 0.785042
v 0.994792 0.602131 -0.785042
v 0.958333 0.602131 -0.895436
v 0.859375 0.602131 -0.951907
v -0.859375 -0.602131 0.951907
v -0.958333 -0.602131 0.895436
v -0.994792 -0.602131 0.785042
v -0.994792 -0.602131 -0.785042
v -0.958333 -0.602131 -0.895437
v -0.859375 -0.602131 -0.951907
v -0.364583 0.326265 -0.989994
v 0.000000 0.326265 -0.994282
v 0.364583 0.326265 -0.989994
v -0.364583 -0.000000 -0.989994
v -0.000000 0.000000 -0.994282
v 0.364583 -0.000000 -0.989994
v -0.364583 -0.326265 -0.989994
v -0.000000 -0.326265 -0.994282
v 0.364583 -0.326265 -0.989994
v 0.364583 0.326265 0.989994
v 0.000000 0.326265 0.994282
v -0.364583 0.326265 0.989994
v 0.364583 -0.000000 0.989994
v 0.000000 0.000000 0.994282
v -0.364583 0.000000 0.989994
v 0.364583 -0.326265 0.989994
v 0.000000 -0.326265 0.994282
v -0.364583 -0.326265 0.989994
v -0.318122 -0.951201 -0.981715
v -0.348862 -0.898130 -0.987512
v -0.362618 -0.789330 -0.989684
v 0.000000 -0.952340 -0.985361
v -0.000000 -0.898478 -0.991635
v 0.000000 -0.789374 -0.993951
v 0.318122 -0.951201 -0.981715
v 0.348862 -0.898130 -0.987512
v 0.362618 -0.789330 -0.989684
v -0.362618 0.789330 -0.989684
v -0.348862 0.898130 -0.987512
v -0.318122 0.951201 -0.981715
v -0.000000 0.789374 -0.993951
v -0.000000 0.898478 -0.991635
v -0.000000 0.952341 -0.985361
v 0.362618 0.789330 -0.989684
v 0.348862 0.898130 -0.987512
v 0.318122 0.951201 -0.981715
v 0.318122 -0.951201 0.981715
v 0.348862 -0.898130 0.987512
v 0.362618 -0.789330 0.989684
v -0.000000 -0.952340 0.985361
v 0.000000 -0.898478 0.991635
v 0.000000 -0.789374 0.993951
v -0.318122 -0.951201 0.981715
v -0.348862 -0.898130 0.987512
v -0.362618 -0.789330 0.989684
v 0.362618 0.789330 0.989684
v 0.348862 0.898130 0.987512
v 0.318122 0.951201 0.981715
v -0.000000 0.789374 0.993951
v 0.000000 0.898478 0.991635
v 0.000000 0.952341 0.985361
v -0.362618 0.789330 0.989684
v -0.348862 0.898130 0.987512
v -0.318122 0.951201 0.981715
v 0.994792 -0.789461 0.323843
v 0.958333 -0.899175 0.323843
v 0.859375 -0.954457 0.323843
v 0.994792 -0.789461 -0.000000
v 0.958333 -0.899175 0.000000
v 0.859375 -0.954457 -0.000000
v 0.994792 -0.789461 -0.323843
v 0.958333 -0.899175 -0.323843
v 0.859375 -0.954457 -0.323843
v 0.859375 0.954457 0.323843
v 0.958333 0.899175 0.323843
v 0.994792 0.789461 0.323843
v 0.859375 0.954457 -0.000000
v 0.958333 0.899175 0.000000
v 0.994792 0.789461 -0.000000
v 0.859375 0.954457 -0.323843
v 0.958333 0.899175 -0.323843
v 0.994792 0.789461 -0.323843
v -0.859375 0.954457 -0.323843
v -0.958333 0.899175 -0.323843
v -0.994792 0.789461 -0.323843
v -0.859375 0.954457 -0.000000
v -0.958333 0.899175 -0.000000
v -0.994792 0.789461 -0.000000
v -0.859375 0.954457 0.323843
v -0.958333 0.899175 0.323843
v -0.994792 0.789461 0.323843
v -0.994792 -0.789461 -0.323843
v -0.958333 -0.899175 -0.323843
v -0.859375 -0.954457 -0.323843
v -0.994792 -0.789461 -0.000000
v -0.958333 -0.899175 0.000000
v -0.859375 -0.954457 0.000000
v -0.994792 -0.789461 0.323843
v -0.958333 -0.899175 0.323843
v -0.859375 -0.954457 0.323843
v -1.000000 0.326265 -0.323843
v -1.000000 -0.000000 -0.323843
v -1.000000 -0.326265 -0.323843
v -1.000000 0.326265 0.000000
v -1.000000 0.000000 -0.000000
v -1.000000 -0.326265 0.000000
v -1.000000 0.326265 0.323843
v -1.000000 0.000000 0.323843
v -1.000000 -0.326265 0.323843
v 1.000000 0.326265 0.323843
v 1.000000 -0.000000 0.323843
v 1.000000 -0.326265 0.323843
v 1.000000 0.326265 -0.000000
v 1.000000 0.000000 0.000000
v 1.000000 -0.326265 -0.000000
v 1.000000 0.326265 -0.323843
v 1.000000 0.000000 -0.323843
v 1.000000 -0.326265 -0.323843
v 0.364583 -0.990589 0.323843
v 0.000000 -0.994622 0.323843
v -0.364583 -0.990589 0.323843
v 0.364583 -0.990589 0.000000
v 0.000000 -0.994622 0.000000
v -0.364583 -0.990589 -0.000000
v 0.364583 -0.990589 -0.323843
v 0.000000 -0.994622 -0.323843
v -0.364583 -0.990589 -0.323843
v -0.364583 0.990589 0.323843
v 0.000000 0.994622 0.323843
v 0.364583 0.990589 0.323843
v -0.364583 0.990589 -0.000000
v 0.000000 0.994622 0.000000
v 0.364583 0.990589 0.000000
v -0.364583 0.990589 -0.323843
v 0.000000 0.994622 -0.323843
v 0.364583 0.990589 -0.323843
v 0.854830 -0.954324 0.784909
v 0.953318 -0.899132 0.784996
v 0.989608 -0.789456 0.785037
v 0.823013 -0.953399 0.894371
v 0.918210 -0.898827 0.895066
v 0.953318 -0.789418 0.895390
v 0.738056 -0.951333 0.948586
v 0.823013 -0.898173 0.950782
v 0.854830 -0.789336 0.951767
v -0.362618 -0.990297 0.784903
v 0.000000 -0.994311 0.784950
v 0.362618 -0.990297 0.784903
v -0.348862 -0.988254 0.894325
v -0.000000 -0.992132 0.894695
v 0.348862 -0.988254 0.894325
v -0.318122 -0.982802 0.948446
v 0.000000 -0.986231 0.949658
v 0.318122 -0.982802 0.948446
v 0.738056 -0.951333 -0.948587
v 0.823013 -0.898173 -0.950782
v 0.854830 -0.789336 -0.951767
v 0.823013 -0.953399 -0.894371
v 0.918210 -0.898827 -0.895066
v 0.953318 -0.789418 -0.895390
v 0.854830 -0.954324 -0.784909
v 0.953318 -0.899132 -0.784996
v 0.989608 -0.789456 -0.785037
v -0.318122 -0.982802 -0.948446
v -0.000000 -0.986231 -0.949657
v 0.318122 -0.982802 -0.948446
v -0.348862 -0.988254 -0.894325
v 0.000000 -0.992132 -0.894695
v 0.348862 -0.988254 -0.894325
v -0.362618 -0.990297 -0.784903
v 0.000000 -0.994311 -0.784950
v 0.362618 -0.990297 -0.784903
v -0.989608 0.789456 -0.785037
v -0.953318 0.899132 -0.784996
v -0.854830 0.954324 -0.784909
v -0.953318 0.789417 -0.895390
v -0.918210 0.898827 -0.895066
v -0.823013 0.953399 -0.894371
v -0.854830 0.789336 -0.951767
v -0.823013 0.898173 -0.950782
v -0.738056 0.951333 -0.948586
v 0.362618 0.990297 0.784903
v -0.000000 0.994311 0.784950
v -0.362618 0.990297 0.784903
v 0.348862 0.988254 0.894325
v -0.000000 0.992132 0.894695
v -0.348862 0.988254 0.894325
v 0.318122 0.982802 0.948446
v -0.000000 0.986232 0.949658
v -0.318122 0.982802 0.948446
v -0.854830 0.789336 0.951767
v -0.823013 0.898173 0.950782
v -0.738056 0.951333 0.948586
v -0.953318 0.789418 0.895390
v -0.918210 0.898827 0.895066
v -0.823013 0.953399 0.894371
v -0.989608 0.789456 0.785037
v -0.953318 0.899132 0.784996
v -0.854830 0.954324 0.784909
v 0.318122 0.982802 -0.948446
v 0.000000 0.986231 -0.949657
v -0.318122 0.982802 -0.948446
v 0.348862 0.988254 -0.894325
v 0.000000 0.992132 -0.894695
v -0.348862 0.988254 -0.894325
v 0.362618 0.990297 -0.784903
v 0.000000 0.994311 -0.784950
v -0.362618 0.990297 -0.784903
v 0.989608 0.789456 0.785037
v 0.953318 0.899132 0.784996
v 0.854830 0.954324 0.784909
v 0.953318 0.789417 0.895390
v 0.918210 0.898827 0.895066
v 0.823013 0.953399 0.894371
v 0.854830 0.789336 0.951767
v 0.823013 0.898173 0.950782
v 0.738056 0.951333 0.948586
v 0.854830 0.789336 -0.951767
v 0.823013 0.898173 -0.950782
v 0.738056 0.951333 -0.948586
v 0.953318 0.789418 -0.895390
v 0.918210 0.898827 -0.895066
v 0.823013 0.953399 -0.894371
v 0.989608 0.789456 -0.785037
v 0.953318 0.899132 -0.784996
v 0.854830 0.954325 -0.784909
v -0.738056 -0.951333 0.948587
v -0.823013 -0.898173 0.950782
v -0.854830 -0.789336 0.951767
v -0.823013 -0.953399 0.894371
v -0.918210 -0.898827 0.895066
v -0.953318 -0.789418 0.895390
v -0.854830 -0.954324 0.784909
v -0.953318 -0.899132 0.784996
v -0.989608 -0.789456 0.785037
v -0.854830 -0.954325 -0.784909
v -0.953318 -0.899132 -0.784996
v -0.989608 -0.789456 -0.785037
v -0.823013 -0.953399 -0.894371
v -0.918210 -0.898827 -0.895066
v -0.953318 -0.789418 -0.895390
v -0.738056 -0.951333 -0.948586
v -0.823013 -0.898173 -0.950782
v -0.854830 -0.789336 -0.951767
v 0.994792 0.326265 0.785042
v 0.958333 0.326265 0.895436
v 0.859375 0.326265 0.951908
v 0.994792 -0.000000 0.785042
v 0.958333 0.000000 0.895437
v 0.859375 -0.000000 0.951908
v 0.994792 -0.326265 0.785042
v 0.958333 -0.326265 0.895437
v 0.859375 -0.326265 0.951908
v 0.859375 0.326265 -0.951907
v 0.958333 0.326265 -0.895436
v 0.994792 0.326265 -0.785042
v 0.859375 -0.000000 -0.951908
v 0.958333 0.000000 -0.895436
v 0.994792 -0.000000 -0.785042
v 0.859375 -0.326265 -0.951907
v 0.958333 -0.326265 -0.895437
v 0.994792 -0.326265 -0.785042
v -0.994792 0.326265 -0.785042
v -0.958333 0.326265 -0.895436
v -0.859375 0.326265 -0.951908
v -0.994792 -0.000000 -0.785042
v -0.958333 0.000000 -0.895437
v -0.859375 -0.000000 -0.951908
v -0.994792 -0.326265 -0.785042
v -0.958333 -0.326265 -0.895437
v -0.859375 -0.326265 -0.951908
v -0.859375 0.326265 0.951907
v -0.958333 0.326265 0.895436
v -0.994792 0.326265 0.785042
v -0.859375 0.000000 0.951907
v -0.958333 -0.000000 0.895436
v -0.994792 -0.000000 0.785042
v -0.859375 -0.326265 0.951908
v -0.958333 -0.326265 0.895437
v -0.994792 -0.326265 0.785042
vn 0.0420 0.7211 -0.6916
vn 0.0420 -0.7211 -0.6916
vn 0.0420 0.7211 0.6916
vn 0.0420 -0.7211 0.6916
vn -0.0420 0.7211 -0.6916
vn -0.0420 -0.7211 -0.6916
vn -0.0420 0.7211 0.6916
vn -0.0420 -0.7211 0.6916
vn 0.0865 0.0015 -0.9962
vn 0.0865 -0.0015 -0.9962
vn -0.0865 -0.0015 0.9962
vn -0.0865 0.0015 0.9962
vn 0.0865 0.0015 0.9962
vn 0.0865 -0.0015 0.9962
vn -0.0865 -0.0015 -0.9962
vn -0.0865 0.0015 -0.9962
vn 0.0822 -0.9966 0.0014
vn 0.0822 -0.9966 -0.0014
vn -0.0822 0.9966 0.0014
vn -0.0822 0.9966 -0.0014
vn 0.0822 0.9966 -0.0014
vn 0.0822 0.9966 0.0014
vn -0.0822 -0.9966 -0.0014
vn -0.0822 -0.9966 0.0014
vn 0.9998 0.0139 0.0139
vn 0.9998 0.0139 -0.0139
vn 0.9998 -0.0139 -0.0139
vn 0.9998 -0.0139 0.0139
vn -0.9998 0.0139 -0.0139
vn -0.9998 0.0139 0.0139
vn -0.9998 -0.0139 0.0139
vn -0.9998 -0.0139 -0.0139
vn 0.0187 -0.7220 -0.6916
vn -0.0000 -0.7223 -0.6916
vn -0.0187 -0.7220 -0.6916
vn 0.0187 0.7220 0.6916
vn -0.0000 0.7223 0.6916
vn -0.0187 0.7220 0.6916
vn -0.0187 -0.7220 0.6916
vn -0.0000 -0.7223 0.6916
vn 0.0187 -0.7220 0.6916
vn -0.0187 0.7220 -0.6916
vn -0.0000 0.7223 -0.6916
vn 0.0187 0.7220 -0.6916
vn -0.0862 -0.0000 -0.9963
vn -0.0272 0.0010 -0.9996
vn -0.0000 0.0009 -1.0000
vn 0.0272 0.0010 -0.9996
vn 0.0862 -0.0000 -0.9963
vn 0.0272 -0.0010 -0.9996
vn -0.0000 -0.0009 -1.0000
vn -0.0272 -0.0010 -0.9996
vn 0.0862 -0.0000 0.9963
vn -0.0862 -0.0000 0.9963
vn 0.0272 0.0010 0.9996
vn -0.0000 0.0009 1.0000
vn -0.0272 0.0010 0.9996
vn -0.0272 -0.0010 0.9996
vn -0.0000 -0.0009 1.0000
vn 0.0272 -0.0010 0.9996
vn 0.0820 -0.4463 -0.8911
vn 0.0951 -0.1244 -0.9877
vn 0.0892 -0.0202 -0.9958
vn 0.0892 -0.0202 0.9958
vn 0.0951 -0.1244 0.9877
vn 0.0820 -0.4463 0.8911
vn -0.0820 -0.4463 -0.8911
vn -0.0951 -0.1244 -0.9877
vn -0.0892 -0.0202 -0.9958
vn 0.0892 0.0202 -0.9958
vn 0.0951 0.1244 -0.9877
vn 0.0820 0.4463 -0.8911
vn 0.0820 0.4463 0.8911
vn 0.0951 0.1244 0.9877
vn 0.0892 0.0202 0.9958
vn -0.0892 0.0202 -0.9958
vn -0.0951 0.1244 -0.9877
vn -0.0820 0.4463 -0.8911
vn -0.0892 0.0202 0.9958
vn -0.0951 0.1244 0.9877
vn -0.0820 0.4463 0.8911
vn -0.0892 -0.0202 0.9958
vn -0.0951 -0.1244 0.9877
vn -0.0820 -0.4463 0.8911
vn 0.9999 -0.0139 -0.0000
vn 0.9848 -0.1730 0.0136
vn 0.7719 -0.6356 0.0104
vn 0.3130 -0.9498 0.0042
vn 0.0820 -0.9966 -0.0000
vn 0.3130 -0.9498 -0.0042
vn 0.7719 -0.6356 -0.0104
vn 0.9848 -0.1730 -0.0136
vn 0.0820 0.9966 -0.0000
vn 0.3130 0.9498 0.0042
vn 0.7719 0.6356 0.0104
vn 0.9848 0.1730 0.0136
vn 0.9999 0.0139 -0.0000
vn 0.9848 0.1730 -0.0136
vn 0.7719 0.6356 -0.0104
vn 0.3130 0.9498 -0.0042
vn -0.0820 0.9966 -0.0000
vn -0.3130 0.9498 -0.0042
vn -0.7719 0.6356 -0.0104
vn -0.9848 0.1730 -0.0136
vn -0.9999 0.0139 -0.0000
vn -0.9848 0.1730 0.0136
vn -0.7719 0.6356 0.0104
vn -0.3130 0.9498 0.0042
vn -0.9999 -0.0139 -0.0000
vn -0.9848 -0.1730 -0.0136
vn -0.7719 -0.6356 -0.0104
vn -0.3130 -0.9498 -0.0042
vn -0.0820 -0.9966 -0.0000
vn -0.3130 -0.9498 0.0042
vn -0.7719 -0.6356 0.0104
vn -0.9848 -0.1730 0.0136
vn -0.9999 -0.0000 -0.0139
vn -0.9999 -0.0000 0.0139
vn 0.9999 -0.0000 0.0139
vn 0.9999 -0.0000 -0.0139
vn 0.0256 -0.9997 0.0009
vn -0.0000 -1.0000 0.0008
vn -0.0256 -0.9997 0.0009
vn -0.0256 -0.9997 -0.0009
vn -0.0000 -1.0000 -0.0008
vn 0.0256 -0.9997 -0.0009
vn -0.0256 0.9997 0.0009
vn -0.0000 1.0000 0.0008
vn 0.0256 0.9997 0.0009
vn 0.0256 0.9997 -0.0009
vn -0.0000 1.0000 -0.0008
vn -0.0256 0.9997 -0.0009
vn 0.0799 -0.9038 0.4204
vn 0.0905 -0.9891 0.1162
vn 0.0848 -0.9962 0.0190
vn 0.9850 -0.0135 0.1721
vn 0.7754 -0.0105 0.6314
vn 0.3202 -0.0043 0.9473
vn -0.0799 -0.9038 0.4204
vn -0.0905 -0.9891 0.1162
vn -0.0848 -0.9962 0.0190
vn 0.0848 -0.9962 -0.0190
vn 0.0905 -0.9891 -0.1162
vn 0.0799 -0.9038 -0.4204
vn 0.3202 -0.0043 -0.9473
vn 0.7754 -0.0105 -0.6314
vn 0.9850 -0.0135 -0.1721
vn -0.0848 -0.9962 -0.0190
vn -0.0905 -0.9891 -0.1162
vn -0.0799 -0.9038 -0.4204
vn -0.3202 0.0043 -0.9473
vn -0.7754 0.0105 -0.6314
vn -0.9850 0.0135 -0.1721
vn -0.0848 0.9962 -0.0190
vn -0.0905 0.9891 -0.1162
vn -0.0799 0.9038 -0.4204
vn 0.0799 0.9038 0.4204
vn 0.0905 0.9891 0.1162
vn 0.0848 0.9962 0.0190
vn -0.0848 0.9962 0.0190
vn -0.0905 0.9891 0.1162
vn -0.0799 0.9038 0.4204
vn -0.9850 0.0135 0.1721
vn -0.7754 0.0105 0.6314
vn -0.3202 0.0043 0.9473
vn 0.0848 0.9962 -0.0190
vn 0.0905 0.9891 -0.1162
vn 0.0799 0.9038 -0.4204
vn 0.3202 0.0043 0.9473
vn 0.7754 0.0105 0.6314
vn 0.9850 0.0135 0.1721
vn 0.9850 0.0135 -0.1721
vn 0.7754 0.0105 -0.6314
vn 0.3202 0.0043 -0.9473
vn -0.3202 -0.0043 0.9473
vn -0.7754 -0.0105 0.6314
vn -0.9850 -0.0135 0.1721
vn -0.9850 -0.0135 -0.1721
vn -0.7754 -0.0105 -0.6314
vn -0.3202 -0.0043 -0.9473
vn -0.0272 -0.0000 -0.9996
vn -0.0000 -0.0000 -1.0000
vn 0.0272 -0.0000 -0.9996
vn 0.0272 -0.0000 0.9996
vn -0.0000 -0.0000 1.0000
vn -0.0272 -0.0000 0.9996
vn -0.0262 -0.2967 -0.9546
vn -0.0290 -0.0748 -0.9968
vn -0.0277 -0.0128 -0.9995
vn -0.0000 -0.2995 -0.9541
vn -0.0000 -0.0685 -0.9977
vn -0.0000 -0.0116 -0.9999
vn 0.0262 -0.2967 -0.9546
vn 0.0290 -0.0748 -0.9968
vn 0.0277 -0.0128 -0.9995
vn -0.0277 0.0128 -0.9995
vn -0.0290 0.0747 -0.9968
vn -0.0262 0.2967 -0.9546
vn -0.0000 0.0116 -0.9999
vn -0.0000 0.0685 -0.9977
vn -0.0000 0.2995 -0.9541
vn 0.0277 0.0128 -0.9995
vn 0.0290 0.0748 -0.9968
vn 0.0262 0.2967 -0.9546
vn 0.0262 -0.2967 0.9546
vn 0.0290 -0.0748 0.9968
vn 0.0277 -0.0128 0.9995
vn -0.0000 -0.2995 0.9541
vn -0.0000 -0.0685 0.9977
vn -0.0000 -0.0116 0.9999
vn -0.0262 -0.2967 0.9546
vn -0.0290 -0.0748 0.9968
vn -0.0277 -0.0128 0.9995
vn 0.0277 0.0128 0.9995
vn 0.0290 0.0747 0.9968
vn 0.0262 0.2967 0.9546
vn -0.0000 0.0116 0.9999
vn -0.0000 0.0685 0.9977
vn -0.0000 0.2995 0.9541
vn -0.0277 0.0128 0.9995
vn -0.0290 0.0748 0.9968
vn -0.0262 0.2967 0.9546
vn 0.9848 -0.1734 -0.0000
vn 0.7706 -0.6374 -0.0000
vn 0.3115 -0.9503 -0.0000
vn 0.3115 0.9503 -0.0000
vn 0.7706 0.6374 -0.0000
vn 0.9848 0.1734 -0.0000
vn -0.3115 0.9503 -0.0000
vn -0.7706 0.6374 -0.0000
vn -0.9848 0.1734 -0.0000
vn -0.9848 -0.1734 -0.0000
vn -0.7706 -0.6374 -0.0000
vn -0.3115 -0.9503 -0.0000
vn -1.0000 -0.0000 -0.0000
vn 1.0000 -0.0000 -0.0000
vn 0.0255 -0.9997 -0.0000
vn -0.0000 -1.0000 -0.0000
vn -0.0255 -0.9997 -0.0000
vn -0.0255 0.9997 -0.0000
vn -0.0000 1.0000 -0.0000
vn 0.0255 0.9997 -0.0000
vn 0.3263 -0.9434 0.0588
vn 0.7764 -0.6161 0.1323
vn 0.9717 -0.1675 0.1667
vn 0.3223 -0.8846 0.3370
vn 0.6581 -0.5351 0.5297
vn 0.7795 -0.1336 0.6120
vn 0.1819 -0.7011 0.6895
vn 0.3274 -0.3466 0.8790
vn 0.3335 -0.0605 0.9408
vn -0.0261 -0.9996 0.0119
vn -0.0000 -0.9999 0.0108
vn 0.0261 -0.9996 0.0119
vn -0.0273 -0.9972 0.0692
vn -0.0000 -0.9980 0.0634
vn 0.0273 -0.9972 0.0692
vn -0.0249 -0.9620 0.2720
vn -0.0000 -0.9616 0.2743
vn 0.0249 -0.9620 0.2720
vn 0.1819 -0.7011 -0.6895
vn 0.3274 -0.3466 -0.8790
vn 0.3335 -0.0605 -0.9408
vn 0.3223 -0.8846 -0.3370
vn 0.6581 -0.5351 -0.5297
vn 0.7795 -0.1336 -0.6120
vn 0.3263 -0.9434 -0.0588
vn 0.7764 -0.6161 -0.1323
vn 0.9717 -0.1675 -0.1667
vn -0.0249 -0.9620 -0.2720
vn -0.0000 -0.9616 -0.2743
vn 0.0249 -0.9620 -0.2720
vn -0.0273 -0.9972 -0.0692
vn -0.0000 -0.9980 -0.0634
vn 0.0273 -0.9972 -0.0692
vn -0.0261 -0.9996 -0.0119
vn -0.0000 -0.9999 -0.0108
vn 0.0261 -0.9996 -0.0119
vn -0.9717 0.1675 -0.1667
vn -0.7764 0.6161 -0.1323
vn -0.3263 0.9434 -0.0588
vn -0.7795 0.1336 -0.6120
vn -0.6581 0.5351 -0.5297
vn -0.3223 0.8846 -0.3370
vn -0.3335 0.0605 -0.9408
vn -0.3274 0.3466 -0.8790
vn -0.1819 0.7011 -0.6895
vn 0.0261 0.9996 0.0119
vn -0.0000 0.9999 0.0108
vn -0.0261 0.9996 0.0119
vn 0.0273 0.9972 0.0692
vn -0.0000 0.9980 0.0634
vn -0.0273 0.9972 0.0692
vn 0.0249 0.9620 0.2720
vn -0.0000 0.9616 0.2743
vn -0.0249 0.9620 0.2720
vn -0.3335 0.0605 0.9408
vn -0.3274 0.3466 0.8790
vn -0.1819 0.7011 0.6895
vn -0.7795 0.1336 0.6120
vn -0.6581 0.5351 0.5297
vn -0.3223 0.8846 0.3370
vn -0.9717 0.1675 0.1667
vn -0.7764 0.6161 0.1323
vn -0.3263 0.9434 0.0588
vn 0.0249 0.9620 -0.2720
vn -0.0000 0.9616 -0.2743
vn -0.0249 0.9620 -0.2720
vn 0.0273 0.9972 -0.0692
vn -0.0000 0.9980 -0.0634
vn -0.0273 0.9972 -0.0692
vn 0.0261 0.9996 -0.0119
vn -0.0000 0.9999 -0.0108
vn -0.0261 0.9996 -0.0119
vn 0.9717 0.1675 0.1667
vn 0.7764 0.6161 0.1323
vn 0.3263 0.9434 0.0588
vn 0.7795 0.1336 0.6120
vn 0.6581 0.5351 0.5297
vn 0.3223 0.8846 0.3370
vn 0.3335 0.0605 0.9408
vn 0.3274 0.3466 0.8790
vn 0.1819 0.7011 0.6895
vn 0.3335 0.0605 -0.9408
vn 0.3274 0.3466 -0.8790
vn 0.1819 0.7011 -0.6895
vn 0.7795 0.1336 -0.6120
vn 0.6581 0.5351 -0.5297
vn 0.3223 0.8846 -0.3370
vn 0.9717 0.1675 -0.1667
vn 0.7764 0.6161 -0.1323
vn 0.3263 0.9434 -0.0588
vn -0.1819 -0.7011 0.6895
vn -0.3274 -0.3466 0.8790
vn -0.3335 -0.0605 0.9408
vn -0.3223 -0.8846 0.3370
vn -0.6581 -0.5351 0.5297
vn -0.7795 -0.1336 0.6120
vn -0.3263 -0.9434 0.0588
vn -0.7764 -0.6161 0.1323
vn -0.9717 -0.1675 0.1667
vn -0.3263 -0.9434 -0.0588
vn -0.7764 -0.6161 -0.1323
vn -0.9717 -0.1675 -0.1667
vn -0.3223 -0.8846 -0.3370
vn -0.6581 -0.5351 -0.5297
vn -0.7795 -0.1336 -0.6120
vn -0.1819 -0.7011 -0.6895
vn -0.3274 -0.3466 -0.8790
vn -0.3335 -0.0605 -0.9408
vn 0.9850 -0.0000 0.1725
vn 0.7740 -0.0000 0.6331
vn 0.3187 -0.0000 0.9479
vn 0.3187 -0.0000 -0.9479
vn 0.7740 -0.0000 -0.6331
vn 0.9850 -0.0000 -0.1725
vn -0.9850 -0.0000 -0.1725
vn -0.7740 -0.0000 -0.6331
vn -0.3187 -0.0000 -0.9479
vn -0.3187 -0.0000 0.9479
vn -0.7740 -0.0000 0.6331
vn -0.9850 -0.0000 0.1725
vt 0.540783 0.328266
vt 0.540783 0.375000
vt 0.500000 0.375000
vt 0.500000 0.328266
vt 0.540783 0.421734
vt 0.500000 0.421734
vt 0.459217 0.375000
vt 0.459217 0.328266
vt 0.459217 0.421734
vt 0.575266 0.288808
vt 0.575266 0.328266
vt 0.540783 0.288808
vt 0.575266 0.375000
vt 0.575266 0.421734
vt 0.575266 0.461192
vt 0.540783 0.461192
vt 0.500000 0.461192
vt 0.459217 0.461192
vt 0.424734 0.461192
vt 0.424734 0.421734
vt 0.424734 0.375000
vt 0.424734 0.328266
vt 0.459217 0.288808
vt 0.424734 0.288808
vt 0.500000 0.288808
vt 0.541024 0.828872
vt 0.542708 0.879851
vt 0.500000 0.879851
vt 0.500000 0.828872
vt 0.547149 0.938106
vt 0.500000 0.938106
vt 0.457292 0.879851
vt 0.458976 0.828872
vt 0.452851 0.938106
vt 0.575266 0.788808
vt 0.575616 0.828872
vt 0.540783 0.788808
vt 0.578066 0.879851
vt 0.585416 0.938106
vt 0.608866 1.000000
vt 0.554433 1.000000
vt 0.500000 1.000000
vt 0.445567 1.000000
vt 0.391134 1.000000
vt 0.414584 0.938106
vt 0.421934 0.879851
vt 0.424384 0.828872
vt 0.459217 0.788808
vt 0.424734 0.788808
vt 0.500000 0.788808
vt 0.379559 0.320913
vt 0.387267 0.326042
vt 0.387267 0.375000
vt 0.379559 0.375000
vt 0.401275 0.327988
vt 0.401275 0.375000
vt 0.387165 0.423958
vt 0.379343 0.429087
vt 0.401263 0.422012
vt 0.375000 0.250000
vt 0.379559 0.277085
vt 0.375000 0.312500
vt 0.387267 0.285574
vt 0.401275 0.288403
vt 0.424734 0.328266
vt 0.424734 0.375000
vt 0.424734 0.421734
vt 0.401174 0.461597
vt 0.386455 0.464426
vt 0.377122 0.472865
vt 0.375000 0.437500
vt 0.375000 0.500000
vt 0.375000 0.375000
vt 0.598725 0.327988
vt 0.612733 0.326042
vt 0.612733 0.375000
vt 0.598725 0.375000
vt 0.620442 0.320913
vt 0.620442 0.375000
vt 0.612835 0.423958
vt 0.598737 0.422012
vt 0.620657 0.429087
vt 0.575266 0.288808
vt 0.598725 0.288403
vt 0.612733 0.285574
vt 0.620441 0.277085
vt 0.625000 0.250000
vt 0.625000 0.312500
vt 0.625000 0.375000
vt 0.625000 0.437500
vt 0.625000 0.500000
vt 0.622878 0.472865
vt 0.613545 0.464426
vt 0.598826 0.461597
vt 0.575266 0.421734
vt 0.575266 0.461192
vt 0.575266 0.375000
vt 0.379332 0.821204
vt 0.387078 0.826548
vt 0.386567 0.879043
vt 0.379471 0.877325
vt 0.401011 0.828582
vt 0.399263 0.879750
vt 0.385080 0.938005
vt 0.379285 0.937791
vt 0.394636 0.938094
vt 0.375000 0.750000
vt 0.377122 0.777135
vt 0.375000 0.812500
vt 0.386455 0.785574
vt 0.401174 0.788403
vt 0.424734 0.788808
vt 0.424384 0.828872
vt 0.414584 0.938106
vt 0.387101 1.000000
vt 0.383067 1.000000
vt 0.379034 1.000000
vt 0.375000 0.937500
vt 0.375000 1.000000
vt 0.375000 0.875000
vt 0.598989 0.828582
vt 0.612922 0.826548
vt 0.613433 0.879043
vt 0.600737 0.879750
vt 0.620668 0.821204
vt 0.620529 0.877325
vt 0.614920 0.938005
vt 0.605364 0.938094
vt 0.620715 0.937791
vt 0.598826 0.788403
vt 0.613545 0.785574
vt 0.622878 0.777135
vt 0.625000 0.750000
vt 0.625000 0.812500
vt 0.625000 0.875000
vt 0.625000 0.937500
vt 0.625000 1.000000
vt 0.620967 1.000000
vt 0.616933 1.000000
vt 0.612900 1.000000
vt 0.585416 0.938106
vt 0.400666 0.665480
vt 0.382395 0.665480
vt 0.382395 0.625000
vt 0.400666 0.625000
vt 0.363115 0.665480
vt 0.363115 0.625000
vt 0.382395 0.584520
vt 0.400666 0.584520
vt 0.363115 0.584520
vt 0.424734 0.699757
vt 0.400666 0.699757
vt 0.424734 0.665481
vt 0.382395 0.699757
vt 0.363115 0.699757
vt 0.336022 0.699757
vt 0.336022 0.665481
vt 0.336022 0.625000
vt 0.336022 0.584520
vt 0.336022 0.550244
vt 0.363115 0.550244
vt 0.382395 0.550244
vt 0.400666 0.550244
vt 0.424734 0.584520
vt 0.424734 0.550244
vt 0.424734 0.625000
vt 0.636885 0.665480
vt 0.617605 0.665480
vt 0.617605 0.625000
vt 0.636885 0.625000
vt 0.599334 0.665480
vt 0.599334 0.625000
vt 0.617605 0.584520
vt 0.636885 0.584520
vt 0.599334 0.584520
vt 0.663978 0.699757
vt 0.636885 0.699757
vt 0.663978 0.665481
vt 0.617605 0.699757
vt 0.599334 0.699757
vt 0.575266 0.699757
vt 0.575266 0.665481
vt 0.575266 0.625000
vt 0.575266 0.584520
vt 0.575266 0.550244
vt 0.599334 0.550244
vt 0.617605 0.550244
vt 0.636885 0.550244
vt 0.663978 0.584520
vt 0.663978 0.550244
vt 0.663978 0.625000
vt 0.620442 0.171749
vt 0.612733 0.167376
vt 0.612733 0.125000
vt 0.620442 0.125000
vt 0.598725 0.165717
vt 0.598725 0.125000
vt 0.612733 0.082624
vt 0.620442 0.078251
vt 0.598725 0.084283
vt 0.625000 0.232846
vt 0.620441 0.209752
vt 0.625000 0.178923
vt 0.612733 0.202514
vt 0.598725 0.200101
vt 0.575266 0.199757
vt 0.575266 0.165480
vt 0.575266 0.125000
vt 0.575266 0.084520
vt 0.575266 0.050244
vt 0.598725 0.049899
vt 0.612733 0.047486
vt 0.620442 0.040248
vt 0.625000 0.071077
vt 0.625000 0.017154
vt 0.625000 0.125000
vt 0.401275 0.165717
vt 0.387267 0.167376
vt 0.387267 0.125000
vt 0.401275 0.125000
vt 0.379559 0.171749
vt 0.379559 0.125000
vt 0.387267 0.082624
vt 0.401275 0.084283
vt 0.379559 0.078251
vt 0.424734 0.199757
vt 0.401275 0.200101
vt 0.424734 0.165480
vt 0.387267 0.202514
vt 0.379559 0.209752
vt 0.375000 0.232846
vt 0.375000 0.178923
vt 0.375000 0.125000
vt 0.375000 0.071077
vt 0.375000 0.017154
vt 0.379559 0.040248
vt 0.387267 0.047486
vt 0.401275 0.049899
vt 0.424734 0.084520
vt 0.424734 0.050244
vt 0.424734 0.125000
vt 0.540783 0.165480
vt 0.500000 0.165480
vt 0.500000 0.125000
vt 0.540783 0.125000
vt 0.459217 0.165480
vt 0.459217 0.125000
vt 0.500000 0.084520
vt 0.540783 0.084520
vt 0.459217 0.084520
vt 0.575266 0.199756
vt 0.540783 0.199757
vt 0.575266 0.165480
vt 0.500000 0.199756
vt 0.459217 0.199756
vt 0.424734 0.199756
vt 0.424734 0.165480
vt 0.424734 0.125000
vt 0.424734 0.084520
vt 0.424734 0.050244
vt 0.459217 0.050244
vt 0.500000 0.050244
vt 0.540783 0.050244
vt 0.575266 0.084520
vt 0.575266 0.050244
vt 0.540783 0.665480
vt 0.500000 0.665480
vt 0.500000 0.625000
vt 0.540783 0.625000
vt 0.459217 0.665480
vt 0.459217 0.625000
vt 0.500000 0.584520
vt 0.540783 0.584520
vt 0.459217 0.584520
vt 0.540783 0.699757
vt 0.500000 0.699757
vt 0.459217 0.699757
vt 0.459217 0.550244
vt 0.500000 0.550244
vt 0.540783 0.550244
vt 0.296056 0.665718
vt 0.245128 0.667376
vt 0.245128 0.625000
vt 0.296056 0.625000
vt 0.186891 0.671749
vt 0.186891 0.625000
vt 0.245128 0.582624
vt 0.296056 0.584283
vt 0.186891 0.578251
vt 0.336022 0.699757
vt 0.296056 0.700101
vt 0.336022 0.665480
vt 0.245128 0.702514
vt 0.186891 0.709752
vt 0.125000 0.732846
vt 0.125000 0.678923
vt 0.125000 0.625000
vt 0.125000 0.571077
vt 0.125000 0.517154
vt 0.186891 0.540248
vt 0.245128 0.547486
vt 0.296056 0.549899
vt 0.336022 0.584520
vt 0.336022 0.550244
vt 0.336022 0.625000
vt 0.813109 0.671749
vt 0.754872 0.667376
vt 0.754872 0.625000
vt 0.813109 0.625000
vt 0.703944 0.665718
vt 0.703944 0.625000
vt 0.754872 0.582624
vt 0.813109 0.578251
vt 0.703944 0.584283
vt 0.875000 0.732846
vt 0.813109 0.709752
vt 0.875000 0.678923
vt 0.754872 0.702514
vt 0.703944 0.700101
vt 0.663978 0.665480
vt 0.663978 0.584520
vt 0.703944 0.549899
vt 0.754872 0.547486
vt 0.813109 0.540248
vt 0.875000 0.571077
vt 0.875000 0.517154
vt 0.875000 0.625000
vt 0.363407 0.723478
vt 0.382496 0.723680
vt 0.383207 0.741329
vt 0.365449 0.739712
vt 0.400679 0.723769
vt 0.400768 0.742037
vt 0.384831 0.759242
vt 0.370601 0.754113
vt 0.400971 0.761276
vt 0.336022 0.699757
vt 0.363115 0.699757
vt 0.336428 0.723276
vt 0.382395 0.699757
vt 0.400666 0.699757
vt 0.424734 0.699757
vt 0.424734 0.723781
vt 0.424734 0.742138
vt 0.424734 0.761567
vt 0.347746 0.747620
vt 0.339271 0.738095
vt 0.186904 0.729713
vt 0.245229 0.725157
vt 0.245940 0.737976
vt 0.186992 0.739441
vt 0.296348 0.723435
vt 0.298391 0.737474
vt 0.247665 0.745281
vt 0.187208 0.745464
vt 0.303758 0.745420
vt 0.186891 0.709752
vt 0.125000 0.737135
vt 0.245128 0.702514
vt 0.296056 0.700101
vt 0.312500 0.750000
vt 0.250000 0.750000
vt 0.187500 0.750000
vt 0.125000 0.745712
vt 0.125000 0.750000
vt 0.125000 0.741423
vt 0.370601 0.495887
vt 0.384831 0.490758
vt 0.383207 0.508671
vt 0.365449 0.510288
vt 0.400971 0.488724
vt 0.400768 0.507963
vt 0.382496 0.526320
vt 0.363407 0.526522
vt 0.400679 0.526231
vt 0.347746 0.502380
vt 0.424734 0.488433
vt 0.424734 0.507862
vt 0.424734 0.526219
vt 0.424734 0.550244
vt 0.382395 0.550244
vt 0.363115 0.550244
vt 0.336428 0.526724
vt 0.336022 0.550244
vt 0.339271 0.511905
vt 0.187208 0.504536
vt 0.247665 0.504719
vt 0.245940 0.512024
vt 0.186992 0.510559
vt 0.303758 0.504580
vt 0.298391 0.512526
vt 0.245229 0.524843
vt 0.186904 0.520287
vt 0.296348 0.526565
vt 0.125000 0.500000
vt 0.187500 0.500000
vt 0.125000 0.504288
vt 0.250000 0.500000
vt 0.312500 0.500000
vt 0.245128 0.547486
vt 0.186891 0.540248
vt 0.125000 0.512865
vt 0.125000 0.508577
vt 0.598725 0.224016
vt 0.612733 0.225662
vt 0.612733 0.242019
vt 0.598725 0.242123
vt 0.620442 0.230004
vt 0.620442 0.241766
vt 0.612733 0.259328
vt 0.598725 0.261287
vt 0.620441 0.254168
vt 0.598725 0.200101
vt 0.575266 0.223781
vt 0.612733 0.202514
vt 0.620441 0.209752
vt 0.625000 0.237135
vt 0.625000 0.241423
vt 0.625000 0.245712
vt 0.575266 0.261567
vt 0.575266 0.242138
vt 0.703652 0.723435
vt 0.754771 0.725157
vt 0.754060 0.737976
vt 0.701609 0.737474
vt 0.813096 0.729713
vt 0.813008 0.739441
vt 0.752335 0.745281
vt 0.696242 0.745420
vt 0.812792 0.745464
vt 0.663978 0.699757
vt 0.703944 0.700101
vt 0.663572 0.723276
vt 0.754872 0.702514
vt 0.813109 0.709752
vt 0.875000 0.737135
vt 0.875000 0.741423
vt 0.875000 0.745712
vt 0.875000 0.750000
vt 0.812500 0.750000
vt 0.750000 0.750000
vt 0.687500 0.750000
vt 0.652254 0.747620
vt 0.660730 0.738095
vt 0.605364 0.004795
vt 0.614920 0.004719
vt 0.613433 0.012024
vt 0.600737 0.012627
vt 0.620715 0.004536
vt 0.620529 0.010559
vt 0.612821 0.024843
vt 0.598976 0.026577
vt 0.620452 0.020287
vt 0.608866 0.000000
vt 0.612900 0.000000
vt 0.585416 0.004805
vt 0.616933 0.000000
vt 0.620967 0.000000
vt 0.625000 0.000000
vt 0.625000 0.004288
vt 0.625000 0.008577
vt 0.625000 0.012865
vt 0.620441 0.040248
vt 0.612733 0.047486
vt 0.598725 0.049899
vt 0.575616 0.026825
vt 0.578066 0.012713
vt 0.696242 0.504580
vt 0.752335 0.504719
vt 0.754060 0.512024
vt 0.701609 0.512526
vt 0.812792 0.504536
vt 0.813008 0.510559
vt 0.754771 0.524843
vt 0.703652 0.526565
vt 0.813096 0.520287
vt 0.687500 0.500000
vt 0.652254 0.502380
vt 0.750000 0.500000
vt 0.812500 0.500000
vt 0.875000 0.500000
vt 0.875000 0.504288
vt 0.875000 0.508577
vt 0.875000 0.512865
vt 0.813109 0.540248
vt 0.703944 0.549899
vt 0.663572 0.526724
vt 0.660730 0.511905
vt 0.599321 0.723769
vt 0.617504 0.723680
vt 0.616793 0.741329
vt 0.599232 0.742037
vt 0.636593 0.723478
vt 0.634551 0.739712
vt 0.615169 0.759242
vt 0.599029 0.761276
vt 0.629399 0.754113
vt 0.575266 0.699757
vt 0.599334 0.699757
vt 0.575266 0.723781
vt 0.617605 0.699757
vt 0.636885 0.699757
vt 0.575266 0.761567
vt 0.575266 0.742138
vt 0.599029 0.488724
vt 0.615169 0.490758
vt 0.616793 0.508671
vt 0.599232 0.507963
vt 0.629399 0.495887
vt 0.634551 0.510288
vt 0.617504 0.526320
vt 0.599321 0.526231
vt 0.636593 0.526522
vt 0.575266 0.488433
vt 0.636885 0.550244
vt 0.617605 0.550244
vt 0.599334 0.550244
vt 0.575266 0.526219
vt 0.575266 0.507862
vt 0.379285 0.004536
vt 0.385080 0.004719
vt 0.386567 0.012024
vt 0.379471 0.010559
vt 0.394636 0.004795
vt 0.399263 0.012627
vt 0.387179 0.024843
vt 0.379548 0.020287
vt 0.401024 0.026577
vt 0.375000 0.000000
vt 0.379034 0.000000
vt 0.375000 0.004288
vt 0.383067 0.000000
vt 0.387101 0.000000
vt 0.391134 0.000000
vt 0.414584 0.004805
vt 0.421934 0.012713
vt 0.424384 0.026825
vt 0.424734 0.050244
vt 0.387267 0.047486
vt 0.379559 0.040248
vt 0.375000 0.012865
vt 0.375000 0.008577
vt 0.379559 0.230004
vt 0.387267 0.225662
vt 0.387267 0.242019
vt 0.379559 0.241766
vt 0.401275 0.224016
vt 0.401275 0.242123
vt 0.387267 0.259328
vt 0.379559 0.254168
vt 0.401275 0.261287
vt 0.379559 0.209752
vt 0.375000 0.237135
vt 0.387267 0.202514
vt 0.401275 0.200101
vt 0.424734 0.199756
vt 0.424734 0.223781
vt 0.424734 0.242138
vt 0.424734 0.261567
vt 0.375000 0.245712
vt 0.375000 0.241423
vt 0.540783 0.723781
vt 0.540783 0.742138
vt 0.500000 0.742138
vt 0.500000 0.723781
vt 0.540783 0.761567
vt 0.500000 0.761567
vt 0.459217 0.742138
vt 0.459217 0.723781
vt 0.459217 0.761567
vt 0.575266 0.699756
vt 0.540783 0.699757
vt 0.575266 0.742138
vt 0.575266 0.761567
vt 0.575266 0.788808
vt 0.540783 0.788808
vt 0.500000 0.788808
vt 0.459217 0.788808
vt 0.424734 0.761567
vt 0.424734 0.742138
vt 0.424734 0.723781
vt 0.459217 0.699757
vt 0.424734 0.699756
vt 0.500000 0.699757
vt 0.540783 0.488433
vt 0.540783 0.507862
vt 0.500000 0.507862
vt 0.500000 0.488433
vt 0.540783 0.526219
vt 0.500000 0.526219
vt 0.459217 0.507862
vt 0.459217 0.488434
vt 0.459217 0.526219
vt 0.575266 0.507862
vt 0.575266 0.526219
vt 0.575266 0.550244
vt 0.540783 0.550243
vt 0.424734 0.526219
vt 0.424734 0.507862
vt 0.424734 0.488433
vt 0.540783 0.223781
vt 0.540783 0.242138
vt 0.500000 0.242138
vt 0.500000 0.223781
vt 0.540783 0.261567
vt 0.500000 0.261567
vt 0.459217 0.242138
vt 0.459217 0.223781
vt 0.459217 0.261567
vt 0.575266 0.199756
vt 0.540783 0.199757
vt 0.575266 0.242138
vt 0.575266 0.261567
vt 0.424734 0.261567
vt 0.424734 0.242138
vt 0.424734 0.223781
vt 0.459217 0.199756
vt 0.500000 0.199756
vt 0.547149 0.004805
vt 0.542708 0.012713
vt 0.500000 0.012713
vt 0.500000 0.004805
vt 0.541024 0.026825
vt 0.500000 0.026825
vt 0.457292 0.012713
vt 0.452851 0.004805
vt 0.458976 0.026825
vt 0.585416 0.004805
vt 0.554433 0.000000
vt 0.578066 0.012713
vt 0.575616 0.026825
vt 0.540783 0.050244
vt 0.500000 0.050244
vt 0.459217 0.050244
vt 0.424734 0.050244
vt 0.424384 0.026825
vt 0.414584 0.004805
vt 0.445567 0.000000
vt 0.500000 0.000000
s 1
usemtl Material
f 213/1/181 214/2/182 217/3/182 216/4/181
f 214/2/182 215/5/183 218/6/183 217/3/182
f 216/4/181 217/3/182 220/7/182 219/8/181
f 217/3/182 218/6/183 221/9/183 220/7/182
f 16/10/16 48/11/46 213/1/181 47/12/45
f 48/11/46 49/13/47 214/2/182 213/1/181
f 49/13/47 50/14/48 215/5/183 214/2/182
f 50/14/48 9/15/9 51/16/49 215/5/183
f 215/5/183 51/16/49 52/17/49 218/6/183
f 218/6/183 52/17/49 53/18/49 221/9/183
f 221/9/183 53/18/49 10/19/10 54/20/50
f 220/7/182 221/9/183 54/20/50 55/21/51
f 219/8/181 220/7/182 55/21/51 56/22/52
f 45/23/45 219/8/181 56/22/52 15/24/15
f 46/25/45 216/4/181 219/8/181 45/23/45
f 47/12/45 213/1/181 216/4/181 46/25/45
f 222/26/184 223/27/185 226/28/185 225/29/184
f 223/27/185 224/30/186 227/31/186 226/28/185
f 225/29/184 226/28/185 229/32/185 228/33/184
f 226/28/185 227/31/186 230/34/186 229/32/185
f 13/35/13 63/36/55 222/26/184 57/37/53
f 63/36/55 64/38/56 223/27/185 222/26/184
f 64/38/56 65/39/57 224/30/186 223/27/185
f 65/39/57 12/40/12 62/41/54 224/30/186
f 224/30/186 62/41/54 61/42/54 227/31/186
f 227/31/186 61/42/54 60/43/54 230/34/186
f 230/34/186 60/43/54 11/44/11 66/45/58
f 229/32/185 230/34/186 66/45/58 67/46/59
f 228/33/184 229/32/185 67/46/59 68/47/60
f 59/48/53 228/33/184 68/47/60 14/49/14
f 58/50/53 225/29/184 228/33/184 59/48/53
f 57/37/53 222/26/184 225/29/184 58/50/53
f 231/51/187 232/52/188 235/53/191 234/54/190
f 232/52/188 233/55/189 236/56/192 235/53/191
f 234/54/190 235/53/191 238/57/194 237/58/193
f 235/53/191 236/56/192 239/59/195 238/57/194
f 6/60/6 75/61/67 231/51/187 35/62/35
f 75/61/67 76/63/68 232/52/188 231/51/187
f 76/63/68 77/64/69 233/55/189 232/52/188
f 77/64/69 15/24/15 56/65/52 233/55/189
f 233/55/189 56/65/52 55/66/51 236/56/192
f 236/56/192 55/66/51 54/67/50 239/59/195
f 239/59/195 54/67/50 10/19/10 71/68/63
f 238/57/194 239/59/195 71/68/63 70/69/62
f 237/58/193 238/57/194 70/69/62 69/70/61
f 33/71/33 237/58/193 69/70/61 2/72/2
f 34/73/34 234/54/190 237/58/193 33/71/33
f 35/62/35 231/51/187 234/54/190 34/73/34
f 240/74/196 241/75/197 244/76/200 243/77/199
f 241/75/197 242/78/198 245/79/201 244/76/200
f 243/77/199 244/76/200 247/80/203 246/81/202
f 244/76/200 245/79/201 248/82/204 247/80/203
f 16/83/16 84/84/76 240/74/196 48/11/46
f 84/84/76 85/85/77 241/75/197 240/74/196
f 85/85/77 86/86/78 242/78/198 241/75/197
f 86/86/78 5/87/5 42/88/42 242/78/198
f 242/78/198 42/88/42 43/89/43 245/79/201
f 245/79/201 43/89/43 44/90/44 248/82/204
f 248/82/204 44/90/44 1/91/1 80/92/72
f 247/80/203 248/82/204 80/92/72 79/93/71
f 246/81/202 247/80/203 79/93/71 78/94/70
f 50/95/48 246/81/202 78/94/70 9/96/9
f 49/97/47 243/77/199 246/81/202 50/95/48
f 48/11/46 240/74/196 243/77/199 49/97/47
f 249/98/205 250/99/206 253/100/209 252/101/208
f 250/99/206 251/102/207 254/103/210 253/100/209
f 252/101/208 253/100/209 256/104/212 255/105/211
f 253/100/209 254/103/210 257/106/213 256/104/212
f 4/107/4 74/108/66 249/98/205 41/109/41
f 74/108/66 73/110/65 250/99/206 249/98/205
f 73/110/65 72/111/64 251/102/207 250/99/206
f 72/111/64 14/112/14 68/113/60 251/102/207
f 251/102/207 68/113/60 67/46/59 254/103/210
f 254/103/210 67/46/59 66/114/58 257/106/213
f 257/106/213 66/114/58 11/44/11 90/115/82
f 256/104/212 257/106/213 90/115/82 91/116/83
f 255/105/211 256/104/212 91/116/83 92/117/84
f 39/118/39 255/105/211 92/117/84 8/119/8
f 40/120/40 252/101/208 255/105/211 39/118/39
f 41/109/41 249/98/205 252/101/208 40/120/40
f 258/121/214 259/122/215 262/123/218 261/124/217
f 259/122/215 260/125/216 263/126/219 262/123/218
f 261/124/217 262/123/218 265/127/221 264/128/220
f 262/123/218 263/126/219 266/129/222 265/127/221
f 13/35/13 83/130/75 258/121/214 63/36/55
f 83/130/75 82/131/74 259/122/215 258/121/214
f 82/131/74 81/132/73 260/125/216 259/122/215
f 81/132/73 3/133/3 36/134/36 260/125/216
f 260/125/216 36/134/36 37/135/37 263/126/219
f 263/126/219 37/135/37 38/136/38 266/129/222
f 266/129/222 38/136/38 7/137/7 89/138/81
f 265/127/221 266/129/222 89/138/81 88/139/80
f 264/128/220 265/127/221 88/139/80 87/140/79
f 65/141/57 264/128/220 87/140/79 12/40/12
f 64/38/56 261/124/217 264/128/220 65/141/57
f 63/36/55 258/121/214 261/124/217 64/38/56
f 267/142/223 268/143/224 271/144/224 270/145/223
f 268/143/224 269/146/225 272/147/225 271/144/224
f 270/145/223 271/144/224 274/148/224 273/149/223
f 271/144/224 272/147/225 275/150/225 274/148/224
f 28/151/28 96/152/86 267/142/223 95/153/85
f 96/152/86 97/154/87 268/143/224 267/142/223
f 97/154/87 98/155/88 269/146/225 268/143/224
f 98/155/88 17/156/17 99/157/89 269/146/225
f 269/146/225 99/157/89 100/158/89 272/147/225
f 272/147/225 100/158/89 101/159/89 275/150/225
f 275/150/225 101/159/89 18/160/18 102/161/90
f 274/148/224 275/150/225 102/161/90 103/162/91
f 273/149/223 274/148/224 103/162/91 104/163/92
f 93/164/85 273/149/223 104/163/92 27/165/27
f 94/166/85 270/145/223 273/149/223 93/164/85
f 95/153/85 267/142/223 270/145/223 94/166/85
f 276/167/226 277/168/227 280/169/227 279/170/226
f 277/168/227 278/171/228 281/172/228 280/169/227
f 279/170/226 280/169/227 283/173/227 282/174/226
f 280/169/227 281/172/228 284/175/228 283/173/227
f 22/176/22 108/177/94 276/167/226 107/178/93
f 108/177/94 109/179/95 277/168/227 276/167/226
f 109/179/95 110/180/96 278/171/228 277/168/227
f 110/180/96 25/181/25 111/182/97 278/171/228
f 278/171/228 111/182/97 112/183/97 281/172/228
f 281/172/228 112/183/97 113/184/97 284/175/228
f 284/175/228 113/184/97 26/185/26 114/186/98
f 283/173/227 284/175/228 114/186/98 115/187/99
f 282/174/226 283/173/227 115/187/99 116/188/100
f 105/189/93 282/174/226 116/188/100 21/190/21
f 106/191/93 279/170/226 282/174/226 105/189/93
f 107/178/93 276/167/226 279/170/226 106/191/93
f 285/192/229 286/193/230 289/194/230 288/195/229
f 286/193/230 287/196/231 290/197/231 289/194/230
f 288/195/229 289/194/230 292/198/230 291/199/229
f 289/194/230 290/197/231 293/200/231 292/198/230
f 20/201/20 120/202/102 285/192/229 119/203/101
f 120/202/102 121/204/103 286/193/230 285/192/229
f 121/204/103 122/205/104 287/196/231 286/193/230
f 122/205/104 29/206/29 123/207/105 287/196/231
f 287/196/231 123/207/105 124/208/105 290/197/231
f 290/197/231 124/208/105 125/209/105 293/200/231
f 293/200/231 125/209/105 30/210/30 126/211/106
f 292/198/230 293/200/231 126/211/106 127/212/107
f 291/199/229 292/198/230 127/212/107 128/213/108
f 117/214/101 291/199/229 128/213/108 19/215/19
f 118/216/101 288/195/229 291/199/229 117/214/101
f 119/203/101 285/192/229 288/195/229 118/216/101
f 294/217/232 295/218/233 298/219/233 297/220/232
f 295/218/233 296/221/234 299/222/234 298/219/233
f 297/220/232 298/219/233 301/223/233 300/224/232
f 298/219/233 299/222/234 302/225/234 301/223/233
f 32/226/32 132/227/110 294/217/232 131/228/109
f 132/227/110 133/229/111 295/218/233 294/217/232
f 133/229/111 134/230/112 296/221/234 295/218/233
f 134/230/112 23/231/23 135/232/113 296/221/234
f 296/221/234 135/232/113 136/233/113 299/222/234
f 299/222/234 136/233/113 137/234/113 302/225/234
f 302/225/234 137/234/113 24/235/24 138/236/114
f 301/223/233 302/225/234 138/236/114 139/237/115
f 300/224/232 301/223/233 139/237/115 140/238/116
f 129/239/109 300/224/232 140/238/116 31/240/31
f 130/241/109 297/220/232 300/224/232 129/239/109
f 131/228/109 294/217/232 297/220/232 130/241/109
f 303/242/235 304/243/235 307/244/235 306/245/235
f 304/243/235 305/246/235 308/247/235 307/244/235
f 306/245/235 307/244/235 310/248/235 309/249/235
f 307/244/235 308/247/235 311/250/235 310/248/235
f 29/251/29 141/252/117 303/242/235 123/253/105
f 141/252/117 142/254/117 304/243/235 303/242/235
f 142/254/117 143/255/117 305/246/235 304/243/235
f 143/255/117 32/256/32 131/257/109 305/246/235
f 305/246/235 131/257/109 130/258/109 308/247/235
f 308/247/235 130/258/109 129/259/109 311/250/235
f 311/250/235 129/259/109 31/260/31 144/261/118
f 310/248/235 311/250/235 144/261/118 145/262/118
f 309/249/235 310/248/235 145/262/118 146/263/118
f 125/264/105 309/249/235 146/263/118 30/265/30
f 124/208/105 306/245/235 309/249/235 125/264/105
f 123/253/105 303/242/235 306/245/235 124/208/105
f 312/266/236 313/267/236 316/268/236 315/269/236
f 313/267/236 314/270/236 317/271/236 316/268/236
f 315/269/236 316/268/236 319/272/236 318/273/236
f 316/268/236 317/271/236 320/274/236 319/272/236
f 25/181/25 147/275/119 312/266/236 111/182/97
f 147/275/119 148/276/119 313/267/236 312/266/236
f 148/276/119 149/277/119 314/270/236 313/267/236
f 149/277/119 28/151/28 95/153/85 314/270/236
f 314/270/236 95/153/85 94/166/85 317/271/236
f 317/271/236 94/166/85 93/164/85 320/274/236
f 320/274/236 93/164/85 27/165/27 150/278/120
f 319/272/236 320/274/236 150/278/120 151/279/120
f 318/273/236 319/272/236 151/279/120 152/280/120
f 113/184/97 318/273/236 152/280/120 26/185/26
f 112/183/97 315/269/236 318/273/236 113/184/97
f 111/182/97 312/266/236 315/269/236 112/183/97
f 321/281/237 322/282/238 325/283/238 324/284/237
f 322/282/238 323/285/239 326/286/239 325/283/238
f 324/284/237 325/283/238 328/287/238 327/288/237
f 325/283/238 326/286/239 329/289/239 328/287/238
f 17/290/17 153/291/121 321/281/237 99/292/89
f 153/291/121 154/293/122 322/282/238 321/281/237
f 154/293/122 155/294/123 323/285/239 322/282/238
f 155/294/123 24/295/24 137/296/113 323/285/239
f 323/285/239 137/296/113 136/297/113 326/286/239
f 326/286/239 136/297/113 135/298/113 329/289/239
f 329/289/239 135/298/113 23/299/23 156/300/124
f 328/287/238 329/289/239 156/300/124 157/301/125
f 327/288/237 328/287/238 157/301/125 158/302/126
f 101/303/89 327/288/237 158/302/126 18/304/18
f 100/305/89 324/284/237 327/288/237 101/303/89
f 99/292/89 321/281/237 324/284/237 100/305/89
f 330/306/240 331/307/241 334/308/241 333/309/240
f 331/307/241 332/310/242 335/311/242 334/308/241
f 333/309/240 334/308/241 337/312/241 336/313/240
f 334/308/241 335/311/242 338/314/242 337/312/241
f 19/315/19 159/316/127 330/306/240 117/317/101
f 159/316/127 160/318/128 331/307/241 330/306/240
f 160/318/128 161/319/129 332/310/242 331/307/241
f 161/319/129 22/176/22 107/320/93 332/310/242
f 332/310/242 107/320/93 106/191/93 335/311/242
f 335/311/242 106/191/93 105/321/93 338/314/242
f 338/314/242 105/321/93 21/190/21 162/322/130
f 337/312/241 338/314/242 162/322/130 163/323/131
f 336/313/240 337/312/241 163/323/131 164/324/132
f 119/325/101 336/313/240 164/324/132 20/326/20
f 118/327/101 333/309/240 336/313/240 119/325/101
f 117/317/101 330/306/240 333/309/240 118/327/101
f 339/328/243 340/329/244 343/330/247 342/331/246
f 340/329/244 341/332/245 344/333/248 343/330/247
f 342/331/246 343/330/247 346/334/250 345/335/249
f 343/330/247 344/333/248 347/336/251 346/334/250
f 17/337/17 98/338/88 339/328/243 167/339/135
f 98/338/88 97/340/87 340/329/244 339/328/243
f 97/340/87 96/341/86 341/332/245 340/329/244
f 96/341/86 28/342/28 168/343/136 341/332/245
f 341/332/245 168/343/136 169/344/137 344/333/248
f 344/333/248 169/344/137 170/345/138 347/336/251
f 347/336/251 170/345/138 14/112/14 72/111/64
f 346/334/250 347/336/251 72/111/64 73/110/65
f 345/335/249 346/334/250 73/110/65 74/108/66
f 165/346/133 345/335/249 74/108/66 4/107/4
f 166/347/134 342/331/246 345/335/249 165/346/133
f 167/339/135 339/328/243 342/331/246 166/347/134
f 348/348/252 349/349/253 352/350/256 351/351/255
f 349/349/253 350/352/254 353/353/257 352/350/256
f 351/351/255 352/350/256 355/354/259 354/355/258
f 352/350/256 353/353/257 356/356/260 355/354/259
f 24/295/24 155/357/123 348/348/252 173/358/141
f 155/357/123 154/359/122 349/349/253 348/348/252
f 154/359/122 153/360/121 350/352/254 349/349/253
f 153/360/121 17/337/17 167/339/135 350/352/254
f 350/352/254 167/339/135 166/347/134 353/353/257
f 353/353/257 166/347/134 165/346/133 356/356/260
f 356/356/260 165/346/133 4/107/4 41/361/41
f 355/354/259 356/356/260 41/361/41 40/362/40
f 354/355/258 355/354/259 40/362/40 39/363/39
f 171/364/139 354/355/258 39/363/39 8/365/8
f 172/366/140 351/351/255 354/355/258 171/364/139
f 173/358/141 348/348/252 351/351/255 172/366/140
f 357/367/261 358/368/262 361/369/265 360/370/264
f 358/368/262 359/371/263 362/372/266 361/369/265
f 360/370/264 361/369/265 364/373/268 363/374/267
f 361/369/265 362/372/266 365/375/269 364/373/268
f 2/72/2 69/70/61 357/367/261 176/376/144
f 69/70/61 70/69/62 358/368/262 357/367/261
f 70/69/62 71/68/63 359/371/263 358/368/262
f 71/68/63 10/19/10 177/377/145 359/371/263
f 359/371/263 177/377/145 178/378/146 362/372/266
f 362/372/266 178/378/146 179/379/147 365/375/269
f 365/375/269 179/379/147 27/380/27 104/163/92
f 364/373/268 365/375/269 104/163/92 103/381/91
f 363/374/267 364/373/268 103/381/91 102/382/90
f 174/383/142 363/374/267 102/382/90 18/384/18
f 175/385/143 360/370/264 363/374/267 174/383/142
f 176/376/144 357/367/261 360/370/264 175/385/143
f 366/386/270 367/387/271 370/388/274 369/389/273
f 367/387/271 368/390/272 371/391/275 370/388/274
f 369/389/273 370/388/274 373/392/277 372/393/276
f 370/388/274 371/391/275 374/394/278 373/392/277
f 6/395/6 35/396/35 366/386/270 182/397/150
f 35/396/35 34/398/34 367/387/271 366/386/270
f 34/398/34 33/399/33 368/390/272 367/387/271
f 33/399/33 2/72/2 176/376/144 368/390/272
f 368/390/272 176/376/144 175/385/143 371/391/275
f 371/391/275 175/385/143 174/383/142 374/394/278
f 374/394/278 174/383/142 18/384/18 158/302/126
f 373/392/277 374/394/278 158/302/126 157/400/125
f 372/393/276 373/392/277 157/400/125 156/401/124
f 180/402/148 372/393/276 156/401/124 23/299/23
f 181/403/149 369/389/273 372/393/276 180/402/148
f 182/397/150 366/386/270 369/389/273 181/403/149
f 375/404/279 376/405/280 379/406/283 378/407/282
f 376/405/280 377/408/281 380/409/284 379/406/283
f 378/407/282 379/406/283 382/410/286 381/411/285
f 379/406/283 380/409/284 383/412/287 382/410/286
f 29/251/29 122/413/104 375/404/279 185/414/153
f 122/413/104 121/415/103 376/405/280 375/404/279
f 121/415/103 120/416/102 377/408/281 376/405/280
f 120/416/102 20/201/20 186/417/154 377/408/281
f 377/408/281 186/417/154 187/418/155 380/409/284
f 380/409/284 187/418/155 188/419/156 383/412/287
f 383/412/287 188/419/156 5/87/5 86/86/78
f 382/410/286 383/412/287 86/86/78 85/85/77
f 381/411/285 382/410/286 85/85/77 84/84/76
f 183/420/151 381/411/285 84/84/76 16/83/16
f 184/421/152 378/407/282 381/411/285 183/420/151
f 185/414/153 375/404/279 378/407/282 184/421/152
f 384/422/288 385/423/289 388/424/292 387/425/291
f 385/423/289 386/426/290 389/427/293 388/424/292
f 387/425/291 388/424/292 391/428/295 390/429/294
f 388/424/292 389/427/293 392/430/296 391/428/295
f 22/431/22 161/432/129 384/422/288 191/433/159
f 161/432/129 160/434/128 385/423/289 384/422/288
f 160/434/128 159/435/127 386/426/290 385/423/289
f 159/435/127 19/315/19 192/436/160 386/426/290
f 386/426/290 192/436/160 193/437/161 389/427/293
f 389/427/293 193/437/161 194/438/162 392/430/296
f 392/430/296 194/438/162 7/439/7 38/440/38
f 391/428/295 392/430/296 38/440/38 37/441/37
f 390/429/294 391/428/295 37/441/37 36/442/36
f 189/443/157 390/429/294 36/442/36 3/133/3
f 190/444/158 387/425/291 390/429/294 189/443/157
f 191/433/159 384/422/288 387/425/291 190/444/158
f 393/445/297 394/446/298 397/447/301 396/448/300
f 394/446/298 395/449/299 398/450/302 397/447/301
f 396/448/300 397/447/301 400/451/304 399/452/303
f 397/447/301 398/450/302 401/453/305 400/451/304
f 12/454/12 87/455/79 393/445/297 197/456/165
f 87/455/79 88/457/80 394/446/298 393/445/297
f 88/457/80 89/458/81 395/449/299 394/446/298
f 89/458/81 7/459/7 194/460/162 395/449/299
f 395/449/299 194/460/162 193/461/161 398/450/302
f 398/450/302 193/461/161 192/462/160 401/453/305
f 401/453/305 192/462/160 19/215/19 128/463/108
f 400/451/304 401/453/305 128/463/108 127/464/107
f 399/452/303 400/451/304 127/464/107 126/465/106
f 195/466/163 399/452/303 126/465/106 30/210/30
f 196/467/164 396/448/300 399/452/303 195/466/163
f 197/456/165 393/445/297 396/448/300 196/467/164
f 402/468/306 403/469/307 406/470/310 405/471/309
f 403/469/307 404/472/308 407/473/311 406/470/310
f 405/471/309 406/470/310 409/474/313 408/475/312
f 406/470/310 407/473/311 410/476/314 409/474/313
f 1/91/1 44/477/44 402/468/306 200/478/168
f 44/477/44 43/479/43 403/469/307 402/468/306
f 43/479/43 42/480/42 404/472/308 403/469/307
f 42/480/42 5/481/5 188/482/156 404/472/308
f 404/472/308 188/482/156 187/483/155 407/473/311
f 407/473/311 187/483/155 186/484/154 410/476/314
f 410/476/314 186/484/154 20/326/20 164/485/132
f 409/474/313 410/476/314 164/485/132 163/323/131
f 408/475/312 409/474/313 163/323/131 162/486/130
f 198/487/166 408/475/312 162/486/130 21/190/21
f 199/488/167 405/471/309 408/475/312 198/487/166
f 200/478/168 402/468/306 405/471/309 199/488/167
f 411/489/315 412/490/316 415/491/319 414/492/318
f 412/490/316 413/493/317 416/494/320 415/491/319
f 414/492/318 415/491/319 418/495/322 417/496/321
f 415/491/319 416/494/320 419/497/323 418/495/322
f 25/498/25 110/499/96 411/489/315 203/500/171
f 110/499/96 109/501/95 412/490/316 411/489/315
f 109/501/95 108/502/94 413/493/317 412/490/316
f 108/502/94 22/431/22 191/433/159 413/493/317
f 413/493/317 191/433/159 190/444/158 416/494/320
f 416/494/320 190/444/158 189/443/157 419/497/323
f 419/497/323 189/443/157 3/133/3 81/132/73
f 418/495/322 419/497/323 81/132/73 82/131/74
f 417/496/321 418/495/322 82/131/74 83/130/75
f 201/503/169 417/496/321 83/130/75 13/35/13
f 202/504/170 414/492/318 417/496/321 201/503/169
f 203/500/171 411/489/315 414/492/318 202/504/170
f 420/505/324 421/506/325 424/507/328 423/508/327
f 421/506/325 422/509/326 425/510/329 424/507/328
f 423/508/327 424/507/328 427/511/331 426/512/330
f 424/507/328 425/510/329 428/513/332 427/511/331
f 9/96/9 78/94/70 420/505/324 206/514/174
f 78/94/70 79/93/71 421/506/325 420/505/324
f 79/93/71 80/92/72 422/509/326 421/506/325
f 80/92/72 1/91/1 200/478/168 422/509/326
f 422/509/326 200/478/168 199/488/167 425/510/329
f 425/510/329 199/488/167 198/487/166 428/513/332
f 428/513/332 198/487/166 21/190/21 116/515/100
f 427/511/331 428/513/332 116/515/100 115/516/99
f 426/512/330 427/511/331 115/516/99 114/517/98
f 204/518/172 426/512/330 114/517/98 26/185/26
f 205/519/173 423/508/327 426/512/330 204/518/172
f 206/514/174 420/505/324 423/508/327 205/519/173
f 429/520/333 430/521/334 433/522/337 432/523/336
f 430/521/334 431/524/335 434/525/338 433/522/337
f 432/523/336 433/522/337 436/526/340 435/527/339
f 433/522/337 434/525/338 437/528/341 436/526/340
f 8/529/8 92/530/84 429/520/333 171/531/139
f 92/530/84 91/532/83 430/521/334 429/520/333
f 91/532/83 90/533/82 431/524/335 430/521/334
f 90/533/82 11/534/11 207/535/175 431/524/335
f 431/524/335 207/535/175 208/536/176 434/525/338
f 434/525/338 208/536/176 209/537/177 437/528/341
f 437/528/341 209/537/177 31/538/31 140/238/116
f 436/526/340 437/528/341 140/238/116 139/539/115
f 435/527/339 436/526/340 139/539/115 138/540/114
f 173/541/141 435/527/339 138/540/114 24/235/24
f 172/542/140 432/523/336 435/527/339 173/541/141
f 171/531/139 429/520/333 432/523/336 172/542/140
f 438/543/342 439/544/343 442/545/346 441/546/345
f 439/544/343 440/547/344 443/548/347 442/545/346
f 441/546/345 442/545/346 445/549/349 444/550/348
f 442/545/346 443/548/347 446/551/350 445/549/349
f 23/231/23 134/552/112 438/543/342 180/553/148
f 134/552/112 133/554/111 439/544/343 438/543/342
f 133/554/111 132/555/110 440/547/344 439/544/343
f 132/555/110 32/556/32 210/557/178 440/547/344
f 440/547/344 210/557/178 211/558/179 443/548/347
f 443/548/347 211/558/179 212/559/180 446/551/350
f 446/551/350 212/559/180 15/24/15 77/64/69
f 445/549/349 446/551/350 77/64/69 76/63/68
f 444/550/348 445/549/349 76/63/68 75/61/67
f 182/560/150 444/550/348 75/61/67 6/60/6
f 181/561/149 441/546/345 444/550/348 182/560/150
f 180/553/148 438/543/342 441/546/345 181/561/149
f 447/562/351 448/563/352 451/564/352 450/565/351
f 448/563/352 449/566/353 452/567/353 451/564/352
f 450/565/351 451/564/352 454/568/352 453/569/351
f 451/564/352 452/567/353 455/570/353 454/568/352
f 25/571/25 203/500/171 447/562/351 147/572/119
f 203/500/171 202/573/170 448/563/352 447/562/351
f 202/573/170 201/574/169 449/566/353 448/563/352
f 201/574/169 13/575/13 57/576/53 449/566/353
f 449/566/353 57/576/53 58/577/53 452/567/353
f 452/567/353 58/577/53 59/578/53 455/570/353
f 455/570/353 59/578/53 14/112/14 170/579/138
f 454/568/352 455/570/353 170/579/138 169/580/137
f 453/569/351 454/568/352 169/580/137 168/581/136
f 149/582/119 453/569/351 168/581/136 28/583/28
f 148/584/119 450/565/351 453/569/351 149/582/119
f 147/572/119 447/562/351 450/565/351 148/584/119
f 456/585/354 457/586/355 460/587/355 459/588/354
f 457/586/355 458/589/356 461/590/356 460/587/355
f 459/588/354 460/587/355 463/591/355 462/592/354
f 460/587/355 461/590/356 464/593/356 463/591/355
f 9/15/9 206/514/174 456/585/354 51/16/49
f 206/514/174 205/594/173 457/586/355 456/585/354
f 205/594/173 204/595/172 458/589/356 457/586/355
f 204/595/172 26/596/26 152/597/120 458/589/356
f 458/589/356 152/597/120 151/279/120 461/590/356
f 461/590/356 151/279/120 150/278/120 464/593/356
f 464/593/356 150/278/120 27/380/27 179/598/147
f 463/591/355 464/593/356 179/598/147 178/599/146
f 462/592/354 463/591/355 178/599/146 177/600/145
f 53/18/49 462/592/354 177/600/145 10/19/10
f 52/17/49 459/588/354 462/592/354 53/18/49
f 51/16/49 456/585/354 459/588/354 52/17/49
f 465/601/357 466/602/358 469/603/358 468/604/357
f 466/602/358 467/605/359 470/606/359 469/603/358
f 468/604/357 469/603/358 472/607/358 471/608/357
f 469/603/358 470/606/359 473/609/359 472/607/358
f 29/610/29 185/414/153 465/601/357 141/611/117
f 185/414/153 184/612/152 466/602/358 465/601/357
f 184/612/152 183/613/151 467/605/359 466/602/358
f 183/613/151 16/10/16 47/12/45 467/605/359
f 467/605/359 47/12/45 46/25/45 470/606/359
f 470/606/359 46/25/45 45/23/45 473/609/359
f 473/609/359 45/23/45 15/24/15 212/614/180
f 472/607/358 473/609/359 212/614/180 211/615/179
f 471/608/357 472/607/358 211/615/179 210/616/178
f 143/617/117 471/608/357 210/616/178 32/556/32
f 142/618/117 468/604/357 471/608/357 143/617/117
f 141/611/117 465/601/357 468/604/357 142/618/117
f 474/619/360 475/620/361 478/621/361 477/622/360
f 475/620/361 476/623/362 479/624/362 478/621/361
f 477/622/360 478/621/361 481/625/361 480/626/360
f 478/621/361 479/624/362 482/627/362 481/625/361
f 12/454/12 197/628/165 474/619/360 62/629/54
f 197/628/165 196/630/164 475/620/361 474/619/360
f 196/630/164 195/631/163 476/623/362 475/620/361
f 195/631/163 30/210/30 146/632/118 476/623/362
f 476/623/362 146/632/118 145/633/118 479/624/362
f 479/624/362 145/633/118 144/634/118 482/627/362
f 482/627/362 144/634/118 31/635/31 209/636/177
f 481/625/361 482/627/362 209/636/177 208/536/176
f 480/626/360 481/625/361 208/536/176 207/637/175
f 60/638/54 480/626/360 207/637/175 11/534/11
f 61/639/54 477/622/360 480/626/360 60/638/54
f 62/629/54 474/619/360 477/622/360 61/639/54
